<?xml version="1.0" encoding="UTF-8"?>
<svg id="b" data-name="Layer_3" xmlns="http://www.w3.org/2000/svg" viewBox="0 0 612 792">
  <defs>
    <style>
      .c {
        fill: #231f20;
      }
    </style>
  </defs>
  <path class="c" d="M177.8,442.72c21.29-.89,41.48-2.92,55.49-5.1,2.57-1.11,2.66-118.6,6.02-130.9,11.38-7.36,15.57-26.45,13.41-31.15-7.63.83-13.67,2.2-15.86,1.55-1.25-1.35-4.4-55.98-4.38-57.13.09-4.36-9.26-6.66-9.86-1.81l-3.98,32.18c-.27,1.63-2.66,1.23-2.39-.4l5.05-32.74c-1.67-10.6-11.5-10.6-14.41-1.99l-5.56,27.91c-.18,1.06-2.17.73-1.99-.33l6.23-28.53c-1.51-7.13-8.41-11.48-11.81-1.89l-7.43,30.79c-.34.77-1.86.11-1.53-.66l6.94-29.8s.54-9.14-7.89-5.74c-8.43,3.4-23.95,62.41-26.36,68.99-2.41,6.59,21.88,33.79,23.23,46.69s-2.94,120.07-2.94,120.07Z"/>
  <path class="c" d="M398.94,230.68c-22.28-13.73-162.92-3.76-162.92-3.76l3.84,47.37s117.37-9.27,129.51,5.16c33.3,39.61,10.02,162.19,3.56,162.59-35.24,2.21-98.85.42-107.79-1.8-7.62-11.21-24.07-19.4-28.72-17.13.29,6.57-.63,15.82-1.95,17.1s-54.91,5.14-56.07,5.14c-4.36.01-6.44,9.42-1.57,9.9l32.27,3.22c1.64.23,1.29,2.63-.34,2.4l-32.85-4.28c-10.56,1.92-10.33,11.75-1.65,14.45l28.03,4.9c1.07.15.78,2.15-.29,2l-28.67-5.56c-7.09,1.68-11.28,8.67-1.61,11.85l30.95,6.7c.78.32.15,1.86-.63,1.54l-29.96-6.23s-9.15-.33-5.55,8.02c3.6,8.35,63.63,16.81,70.27,19.06,6.64,2.25,32.29-3.76,45.15-5.41,9.6-1.23,85.87,1.37,113.02-8.67,45.59-16.63,59.74-222.57,3.97-268.58Z"/>
</svg>