<svg width="1041" height="275" viewBox="0 0 1041 275" fill="none" xmlns="http://www.w3.org/2000/svg">
<path d="M207 142C172.5 154 67.0437 130.481 54 68.5C40.9563 6.51926 135.152 42.1893 164.5 58.5C193.848 74.8107 253.948 95.2889 273.5 99.5C306 106.5 395 121 433.5 104.5C467.023 90.1332 505.087 52.5243 479 46C452.913 39.4757 195.5 220.5 159.942 238.536C114.857 261.404 21.0291 298.521 6.49999 231.5C-9.00001 160 132 201 162.5 219C205.278 244.246 347.564 267.573 403 248C458.436 228.427 538.887 183.315 522 169C497.226 148 439.22 160.003 433.5 199C428 236.5 467.13 267.335 503 244.5C531.696 226.232 570.5 148.5 574.08 150.458C577.66 152.416 545 263.5 549 263.5C553 263.5 581 199 588.5 182C595.221 166.766 641.239 129.806 644.5 182C647.761 234.194 637 259.891 640 263.5C643 267.109 690 163 694 163C698 163 690.093 241.203 687.5 263.5C684.907 285.797 773.227 102.5 799 2.52863C775.031 95.5 716 252.5 716 263.5C716 272.5 824 97.1308 851.175 2.52863C851.175 2.52863 752 255.5 756 258C760 260.5 785.913 163 812 163C844.609 163 827.067 204.803 818 231.5C809 258 814.608 263.5 857 263.5C899.392 263.5 1048.04 205.914 1035 150.458C1024.57 106.093 721.22 109.286 581 99.5" stroke="#E379A9" stroke-width="9" stroke-linecap="round"/>
</svg>
