<svg width="913" height="1464" viewBox="0 0 913 1464" fill="none" xmlns="http://www.w3.org/2000/svg">
<path d="M3.5 1460.5V425C3.5 425 3.5 4 456.5 4C909.5 4 909.5 425 909.5 425V1460.5H3.5Z" fill="#5B8FB9" fill-opacity="0.32"/>
<path d="M197 99.5C197 99.5 221.498 153.112 282.5 196.445M724.5 99.5C724.5 99.5 707.899 135.83 668 172.849M527.5 75L767.5 522.5M668 172.849C626.556 211.302 559.975 250.5 460.75 250.5C440.877 250.5 422.314 248.928 405 246.104M668 172.849L824 330.5M311 214.249C227.623 352.592 180.877 430.156 97.5 568.5M311 214.249C316.598 217.3 322.43 220.232 328.5 223.016M311 214.249C300.727 208.65 291.239 202.653 282.5 196.445M328.5 223.016L215 469M328.5 223.016C350.711 233.201 376.118 241.394 405 246.104M282.5 196.445L248.5 234.5M282.5 110.5L58.5 288M177.5 137L215 110.5M689 121L724.5 151.5M460.75 214.249L456.5 683.5M527.5 223.016L575.5 425M405 246.104L377 406M311 42C311 42 360.749 137 460.75 137C560.751 137 609.5 42 609.5 42M3.5 425V1460.5H909.5V425C909.5 425 909.5 4 456.5 4C3.5 4 3.5 425 3.5 425Z" stroke="#EFBF04" stroke-width="7"/>
</svg>
