<svg width="1185" height="2169" viewBox="0 0 1185 2169" fill="none" xmlns="http://www.w3.org/2000/svg">
<g id="alizee">
<g id="capeback">
<g filter="url(#filter0_iii_5_29)">
<path d="M336.393 1055.51C350.954 966.855 384.196 713.764 414.463 489.737L539.666 505.008L482.331 1621.84C482.331 1621.84 468.804 1607.76 461.977 1589.19C453.695 1613.84 370.129 1707.97 370.129 1707.97C370.129 1707.97 349.02 1685.9 341.372 1669.9C336.515 1686.29 215.185 1785.1 215.185 1785.1C228.483 1717.99 317.296 1171.79 336.393 1055.51Z" fill="#CC2098"/>
</g>
<path d="M336.393 1055.51C350.954 966.855 384.196 713.764 414.463 489.737L539.666 505.008L482.331 1621.84C482.331 1621.84 468.804 1607.76 461.977 1589.19C453.695 1613.84 370.129 1707.97 370.129 1707.97C370.129 1707.97 349.02 1685.9 341.372 1669.9C336.515 1686.29 215.185 1785.1 215.185 1785.1C228.483 1717.99 317.296 1171.79 336.393 1055.51Z" stroke="black" stroke-width="7"/>
</g>
<g id="legback" filter="url(#filter1_ii_5_29)">
<path id="Vector 9" d="M800.974 1782.49L632.5 1094L497.364 1168.22L662.531 1837.58L800.974 1782.49Z" fill="#FDD8CE" stroke="black" stroke-width="7"/>
<path id="Vector 13" d="M1022.48 1996.8C1022.98 2017.98 1015.29 2040.11 984.418 2060.29C953.55 2080.47 908.253 2092.75 853.394 2101.11C798.535 2109.46 728.203 2129.04 718.357 2119.92C708.512 2110.81 706.325 2058.2 690.805 2012.76C675.286 1967.31 582.144 1829.28 582.144 1829.28C582.144 1829.28 639.302 1773.82 688.867 1740.99L689.165 1740.79C748.967 1701.18 819.737 1654.31 840.195 1660.47C860.687 1666.64 834.973 1918.9 855.261 1944.39C875.548 1969.87 1021.98 1975.61 1022.48 1996.8Z" fill="#F2F4FF" stroke="black" stroke-width="7"/>
<path id="Vector 14" d="M594.637 1844.01C639.75 1802.08 753.895 1706.53 843.852 1675.85M607.309 1864.88C660.768 1820.52 787.738 1718.36 846.584 1701.53" stroke="#F89D12" stroke-width="10" stroke-linecap="round"/>
<g id="Vector 17">
<path d="M751.654 2080.2C742.242 2079.04 727.719 2080.48 711.34 2085.23L720.803 2117.46C753.395 2114.63 821.048 2108.14 830.922 2104.85C840.797 2101.56 861.733 2095.87 870.967 2093.44C852.463 2095.58 824.789 2099.29 814.121 2099.96C766.109 2102.99 771.261 2082.61 751.654 2080.2Z" fill="#CC2098"/>
<path d="M929.971 2084.13C923.153 2086.69 896.817 2090.44 870.967 2093.44M870.967 2093.44C852.463 2095.58 824.789 2099.29 814.121 2099.96C766.109 2102.99 771.261 2082.61 751.654 2080.2C742.242 2079.04 727.719 2080.48 711.34 2085.23L720.803 2117.46C753.395 2114.63 821.048 2108.14 830.922 2104.85C840.797 2101.56 861.733 2095.87 870.967 2093.44Z" stroke="#CC2098" stroke-width="6" stroke-linecap="round"/>
</g>
<path id="Vector 15" d="M1022.48 1996.8C1022.98 2017.98 1015.29 2040.11 984.418 2060.29C953.55 2080.47 908.253 2092.75 853.394 2101.11C798.535 2109.46 728.203 2129.04 718.357 2119.92C708.512 2110.81 706.325 2058.2 690.805 2012.76C675.286 1967.31 582.144 1829.28 582.144 1829.28C582.144 1829.28 639.302 1773.82 688.867 1740.99L689.165 1740.79C748.967 1701.18 819.737 1654.31 840.195 1660.47C860.687 1666.64 834.973 1918.9 855.261 1944.39C875.548 1969.87 1021.98 1975.61 1022.48 1996.8Z" stroke="black" stroke-width="7"/>
</g>
<g id="legfront">
<path id="Vector 8" d="M500 1804L598 1102L445 1121L351 1804H500Z" fill="#FDD8CE" stroke="black" stroke-width="7"/>
<path id="Vector 7" d="M633 2080.32C626 2100.32 611 2118.32 575 2126.32C539 2134.32 492.283 2129.84 438 2118.32C383.717 2106.8 311 2100.32 305 2088.32C299 2076.32 315.5 2026.32 317 1978.32C318.5 1930.32 280 1768.32 280 1768.32C280 1768.32 353.043 1736.57 411 1723.32L411.348 1723.24C481.275 1707.25 564.028 1688.34 581 1701.32C598 1714.32 485 1941.32 495 1972.32C505 2003.32 640 2060.32 633 2080.32Z" fill="#F2F4FF" stroke="black" stroke-width="7"/>
<path id="Vector 11" d="M286.5 1786.5C343.5 1763.17 484 1714 579 1717M291 1810.5C356.667 1787.83 511.5 1737 572.5 1742" stroke="#F89D12" stroke-width="10" stroke-linecap="round"/>
<g id="Vector 17_2">
<path d="M348.5 2062.5C340.1 2058.1 326 2054.33 309 2053L306.5 2086.5C338 2095.33 403.6 2113.1 414 2113.5C424.4 2113.9 446 2115.95 455.5 2116.92C437.427 2112.41 410.221 2106.13 400 2103C354 2088.92 366 2071.67 348.5 2062.5Z" fill="#CC2098"/>
<path d="M514 2129C506.715 2129 480.748 2123.23 455.5 2116.92M455.5 2116.92C437.427 2112.41 410.221 2106.13 400 2103C354 2088.92 366 2071.67 348.5 2062.5C340.1 2058.1 326 2054.33 309 2053L306.5 2086.5C338 2095.33 403.6 2113.1 414 2113.5C424.4 2113.9 446 2115.95 455.5 2116.92Z" stroke="#CC2098" stroke-width="6" stroke-linecap="round"/>
</g>
<path id="Vector 12" d="M633 2080.32C626 2100.32 611 2118.32 575 2126.32C539 2134.32 492.283 2129.84 438 2118.32C383.717 2106.8 311 2100.32 305 2088.32C299 2076.32 315.5 2026.32 317 1978.32C318.5 1930.32 280 1768.32 280 1768.32C280 1768.32 353.043 1736.57 411 1723.32L411.348 1723.24C481.275 1707.25 564.028 1688.34 581 1701.32C598 1714.32 485 1941.32 495 1972.32C505 2003.32 640 2060.32 633 2080.32Z" stroke="black" stroke-width="7"/>
</g>
<g id="armback" filter="url(#filter2_ii_5_29)">
<g id="armfront">
<path d="M540.879 695.908C564.464 751.584 697.635 916.642 697.635 916.642C697.635 916.642 741.67 879.593 766.304 860.066C766.304 860.066 688.701 661.001 640.745 613.949C592.789 566.896 517.295 640.232 540.879 695.908Z" fill="#FDD8CE"/>
<path d="M865.205 1014.12C865.205 1014.12 840.143 892.222 826.173 824.271C809.227 828.328 792.634 839.195 766.304 860.066C741.67 879.593 697.635 916.642 697.635 916.642C683.818 929.91 659.273 955.405 649.754 965.33L782.692 1058.14C782.56 1069.61 794.858 1113.07 822.955 1135.62C890.199 1189.58 920.317 1121.73 918.738 1101.64C917.127 1081.13 929.184 1094.89 931.431 1091.37C937.861 1081.29 934.736 1067.72 924.08 1055.62C899.522 1027.72 865.205 1014.12 865.205 1014.12Z" fill="#F2F4FF"/>
<path d="M697.635 916.642C683.818 929.91 659.273 955.405 649.754 965.33L782.692 1058.14C782.56 1069.61 794.858 1113.07 822.955 1135.62C890.199 1189.58 920.317 1121.73 918.738 1101.64C917.127 1081.13 929.184 1094.89 931.431 1091.37C937.861 1081.29 934.736 1067.72 924.08 1055.62C899.522 1027.72 865.205 1014.12 865.205 1014.12C865.205 1014.12 840.143 892.222 826.173 824.271C809.227 828.328 792.634 839.195 766.304 860.066M697.635 916.642C697.635 916.642 564.464 751.584 540.879 695.908C517.295 640.232 592.789 566.896 640.745 613.949C688.701 661.001 766.304 860.066 766.304 860.066M697.635 916.642C697.635 916.642 741.67 879.593 766.304 860.066" stroke="black" stroke-width="7"/>
</g>
<path id="Vector 16" d="M665.118 972.341C693.011 942.063 764.167 873.431 825.646 841.128M682.498 984.504C710.603 953.512 779.012 885.96 827.804 863.696" stroke="#F89D12" stroke-width="10" stroke-linecap="round"/>
<g id="armfront_2">
<path d="M540.879 695.908C564.464 751.584 697.635 916.642 697.635 916.642C697.635 916.642 741.67 879.593 766.304 860.066C766.304 860.066 688.701 661.001 640.745 613.949C592.789 566.896 517.295 640.232 540.879 695.908Z" fill="#FDD8CE"/>
<path d="M697.635 916.642C683.818 929.91 659.273 955.405 649.754 965.33L782.692 1058.14C782.56 1069.61 794.858 1113.07 822.955 1135.62C890.199 1189.58 920.317 1121.73 918.738 1101.64C917.127 1081.13 929.184 1094.89 931.431 1091.37C937.861 1081.29 934.736 1067.72 924.08 1055.62C899.522 1027.72 865.205 1014.12 865.205 1014.12C865.205 1014.12 840.143 892.222 826.173 824.271C809.227 828.328 792.634 839.195 766.304 860.066M697.635 916.642C697.635 916.642 564.464 751.584 540.879 695.908C517.295 640.232 592.789 566.896 640.745 613.949C688.701 661.001 766.304 860.066 766.304 860.066M697.635 916.642C697.635 916.642 741.67 879.593 766.304 860.066" stroke="black" stroke-width="7"/>
</g>
</g>
<g id="hairfront">
<g filter="url(#filter3_ii_5_29)">
<path d="M579.384 524.344C501.031 397.615 560.017 233.735 576.537 176.149C593.056 118.563 664.925 86.4424 649.249 188.065C633.572 289.688 583.275 376.395 634.259 491.775C665.307 562.038 713.997 616.915 764.427 639.248C814.857 661.582 851.319 720.561 780.74 779.726C788.694 720.714 745.487 674.763 722.889 659.163C687.454 637.224 619.821 589.747 579.384 524.344Z" fill="#E9CDFE"/>
</g>
<path d="M579.384 524.344C501.031 397.615 560.017 233.735 576.537 176.149C593.056 118.563 664.925 86.4424 649.249 188.065C633.572 289.688 583.275 376.395 634.259 491.775C665.307 562.038 713.997 616.915 764.427 639.248C814.857 661.582 851.319 720.561 780.74 779.726C788.694 720.714 745.487 674.763 722.889 659.163C687.454 637.224 619.821 589.747 579.384 524.344Z" stroke="black" stroke-width="7" stroke-linecap="round"/>
</g>
<path id="dress" d="M440 838L345 603L524 529L698 575L649 838L864 1235C864 1235 745 1330 561 1330C344 1330 255 1229 255 1229L440 838Z" fill="#F2F4FF" stroke="black" stroke-width="7"/>
<path id="capefront" d="M181 1227C199.727 1139.13 269 836.333 315 615L435 593L299 1703C299 1703 286.5 1688 281 1669C271 1693 181 1781 181 1781C181 1781 161.5 1757.5 155 1741C149 1757 21 1847 21 1847C39 1781 155 1349 181 1227Z" fill="#84318D" stroke="black" stroke-width="7"/>
<g id="armfront_3">
<g id="armfront_4">
<path d="M413.875 624.389C389.353 679.658 359.884 889.682 359.884 889.682C359.884 889.682 417.026 896.504 448.116 901.141C448.116 901.141 540.389 708.436 541.959 641.271C543.529 574.105 438.397 569.12 413.875 624.389Z" fill="#FDD8CE"/>
<path d="M403.256 1078.63C403.256 1078.63 475.111 977.019 515.165 920.378C500.621 910.781 481.347 906.096 448.116 901.141C417.026 896.504 359.884 889.682 359.884 889.682C340.755 888.664 305.369 888.173 291.618 888.008L314.728 1048.48C306.266 1056.23 282.944 1094.91 285.689 1130.83C292.26 1216.8 362.374 1192.41 375.963 1177.52C389.832 1162.33 388.026 1180.54 392.132 1179.77C403.883 1177.58 411.655 1166.02 413.206 1149.97C416.782 1112.98 403.256 1078.63 403.256 1078.63Z" fill="#F2F4FF"/>
<path d="M359.884 889.682C340.755 888.664 305.369 888.173 291.618 888.008L314.728 1048.48C306.266 1056.23 282.944 1094.91 285.689 1130.83C292.26 1216.8 362.374 1192.41 375.963 1177.52C389.832 1162.33 388.026 1180.54 392.132 1179.77C403.883 1177.58 411.655 1166.02 413.206 1149.97C416.782 1112.98 403.256 1078.63 403.256 1078.63C403.256 1078.63 475.111 977.019 515.165 920.378C500.621 910.781 481.347 906.096 448.116 901.141M359.884 889.682C359.884 889.682 389.353 679.658 413.875 624.389C438.397 569.12 543.529 574.105 541.959 641.271C540.389 708.436 448.116 901.141 448.116 901.141M359.884 889.682C359.884 889.682 417.026 896.504 448.116 901.141" stroke="black" stroke-width="7"/>
</g>
<path id="Vector 16_2" d="M297 904.015C338.167 903.682 436.9 908.715 502.5 931.515M300 925.015C341.833 924.348 437.9 928.115 487.5 948.515" stroke="#F89D12" stroke-width="10" stroke-linecap="round"/>
<g id="armfront_5">
<path d="M413.875 624.389C389.353 679.658 359.884 889.682 359.884 889.682C359.884 889.682 417.026 896.504 448.116 901.141C448.116 901.141 540.389 708.436 541.959 641.271C543.529 574.105 438.397 569.12 413.875 624.389Z" fill="#FDD8CE"/>
<path d="M359.884 889.682C340.755 888.664 305.369 888.173 291.618 888.008L314.728 1048.48C306.266 1056.23 282.944 1094.91 285.689 1130.83C292.26 1216.8 362.374 1192.41 375.963 1177.52C389.832 1162.33 388.026 1180.54 392.132 1179.77C403.883 1177.58 411.655 1166.02 413.206 1149.97C416.782 1112.98 403.256 1078.63 403.256 1078.63C403.256 1078.63 475.111 977.019 515.165 920.378C500.621 910.781 481.347 906.096 448.116 901.141M359.884 889.682C359.884 889.682 389.353 679.658 413.875 624.389C438.397 569.12 543.529 574.105 541.959 641.271C540.389 708.436 448.116 901.141 448.116 901.141M359.884 889.682C359.884 889.682 417.026 896.504 448.116 901.141" stroke="black" stroke-width="7"/>
</g>
</g>
<g id="pontrail">
<g filter="url(#filter4_i_5_29)">
<path d="M317 17.3968C362.253 23.8617 445 149.397 452 171.397C426 251.397 376.94 325.621 386 303.397C392.854 286.585 204.025 476.401 124.025 470.401C69.143 466.285 -31.9748 368.401 17.025 274.401C109.025 365.401 172.854 232.401 168.025 214.401C157.025 173.401 103.045 144.401 115.025 89.4009C132.886 7.40101 282 12.3966 317 17.3968Z" fill="#E9CDFE"/>
</g>
<path d="M317 17.3968C362.253 23.8617 445 149.397 452 171.397C426 251.397 376.94 325.621 386 303.397C392.854 286.585 204.025 476.401 124.025 470.401C69.143 466.285 -31.9748 368.401 17.025 274.401C109.025 365.401 172.854 232.401 168.025 214.401C157.025 173.401 103.045 144.401 115.025 89.4009C132.886 7.40101 282 12.3966 317 17.3968Z" stroke="black" stroke-width="7"/>
</g>
<g id="backhair">
<g filter="url(#filter5_i_5_29)">
<path d="M608 167C591.5 182.5 550 389 550 477C356 503 268 379.712 268 256C268 132.288 365.826 31.9998 486.5 31.9998C607.174 31.9998 661 111 608 167Z" fill="#E9CDFE"/>
</g>
<path d="M624.847 122.162C624.359 136.447 618.229 151.074 605.52 164.529C604.06 165.933 602.736 168.066 601.508 170.485C600.216 173.033 598.872 176.223 597.49 179.942C594.723 187.385 591.717 197.181 588.598 208.686C582.358 231.71 575.605 261.816 569.376 294.15C557.215 357.277 546.976 429.286 546.516 473.925C451.916 485.91 383.504 461.831 338.634 420.079C293.219 377.82 271.5 317.065 271.5 256C271.5 134.138 367.84 35.4998 486.5 35.4998C546.174 35.4998 588.63 55.0367 609.67 80.718C620.167 93.5303 625.335 107.845 624.847 122.162Z" stroke="black" stroke-width="7"/>
</g>
<g id="face">
<path id="face_2" d="M699 312L703.5 288.5L711 249L676 190L592 179C592 179 567.235 241 557 328C546.765 415 545.5 446 545.5 446C671.5 467 705.5 391 703.5 373C701.9 358.6 699 335.5 699 312Z" fill="#FDD8CE" stroke="black" stroke-width="7"/>
<path id="mouth" d="M661.938 380.972C674.111 386.341 680.165 391.033 700.571 386.246" stroke="black" stroke-width="7" stroke-linecap="round"/>
</g>
<path id="scarf" d="M309 546C313 532.4 299.333 482.667 301 442C321.8 426 411 451 441 451C471 451 669 435 669 435L699 465L686 504L722 546C723.667 551 726 568.2 722 597C572 552 516 581 488 587C460 593 292.2 689.4 288 675C281 651 305 559.6 309 546Z" fill="#84318D" stroke="black" stroke-width="7"/>
<path id="hairfront_2" d="M552.277 553.898C472.349 428.157 529.286 263.553 545.086 205.766C560.886 147.979 632.349 114.964 617.941 216.774C603.533 318.584 554.322 405.913 606.741 520.647C638.664 590.518 688.034 644.783 738.739 666.485C789.444 688.188 826.639 746.707 756.803 806.748C764.02 747.642 720.243 702.233 697.453 686.917C661.746 665.421 593.527 618.792 552.277 553.898Z" fill="#E9CDFE" stroke="black" stroke-width="7" stroke-linecap="round"/>
<g id="bangs">
<g filter="url(#filter6_i_5_29)">
<path d="M598.157 34.3769C573.106 56.3173 558.514 81.2849 561.923 134.293C565.332 187.301 729.47 327.687 801.533 300.856C873.596 274.024 886.739 213.055 886.894 147.055C817.835 171.893 770.845 167.782 737.082 66.7028C703.319 -34.376 623.209 12.4365 598.157 34.3769Z" fill="#C783FC"/>
</g>
<path d="M598.157 34.3769C573.106 56.3173 558.514 81.2849 561.923 134.293C565.332 187.301 729.47 327.687 801.533 300.856C873.596 274.024 886.739 213.055 886.894 147.055C817.835 171.893 770.845 167.782 737.082 66.7028C703.319 -34.376 623.209 12.4365 598.157 34.3769Z" stroke="black" stroke-width="7"/>
</g>
<path id="eye" d="M676.5 304.5C676.5 317.701 674.731 329.549 671.94 338.011C670.539 342.256 668.927 345.51 667.257 347.651C665.562 349.823 664.104 350.5 663 350.5C661.896 350.5 660.438 349.823 658.743 347.651C657.073 345.51 655.461 342.256 654.06 338.011C651.269 329.549 649.5 317.701 649.5 304.5C649.5 291.299 651.269 279.451 654.06 270.989C655.461 266.744 657.073 263.49 658.743 261.349C660.438 259.177 661.896 258.5 663 258.5C664.104 258.5 665.562 259.177 667.257 261.349C668.927 263.49 670.539 266.744 671.94 270.989C674.731 279.451 676.5 291.299 676.5 304.5Z" fill="#6200AF" stroke="black" stroke-width="5"/>
</g>
<defs>
<filter id="filter0_iii_5_29" x="205.864" y="481.844" width="337.465" height="1316.1" filterUnits="userSpaceOnUse" color-interpolation-filters="sRGB">
<feFlood flood-opacity="0" result="BackgroundImageFix"/>
<feBlend mode="normal" in="SourceGraphic" in2="BackgroundImageFix" result="shape"/>
<feColorMatrix in="SourceAlpha" type="matrix" values="0 0 0 0 0 0 0 0 0 0 0 0 0 0 0 0 0 0 127 0" result="hardAlpha"/>
<feOffset dx="378" dy="4"/>
<feGaussianBlur stdDeviation="2"/>
<feComposite in2="hardAlpha" operator="arithmetic" k2="-1" k3="1"/>
<feColorMatrix type="matrix" values="0 0 0 0 0.0627451 0 0 0 0 0 0 0 0 0 0.219608 0 0 0 0.25 0"/>
<feBlend mode="normal" in2="shape" result="effect1_innerShadow_5_29"/>
<feColorMatrix in="SourceAlpha" type="matrix" values="0 0 0 0 0 0 0 0 0 0 0 0 0 0 0 0 0 0 127 0" result="hardAlpha"/>
<feOffset dx="-7" dy="-21"/>
<feGaussianBlur stdDeviation="2"/>
<feComposite in2="hardAlpha" operator="arithmetic" k2="-1" k3="1"/>
<feColorMatrix type="matrix" values="0 0 0 0 0.964706 0 0 0 0 0.596078 0 0 0 0 0.780392 0 0 0 1 0"/>
<feBlend mode="overlay" in2="effect1_innerShadow_5_29" result="effect2_innerShadow_5_29"/>
<feColorMatrix in="SourceAlpha" type="matrix" values="0 0 0 0 0 0 0 0 0 0 0 0 0 0 0 0 0 0 127 0" result="hardAlpha"/>
<feOffset dx="-19" dy="4"/>
<feGaussianBlur stdDeviation="2"/>
<feComposite in2="hardAlpha" operator="arithmetic" k2="-1" k3="1"/>
<feColorMatrix type="matrix" values="0 0 0 0 0.964706 0 0 0 0 0.596078 0 0 0 0 0.780392 0 0 0 1 0"/>
<feBlend mode="overlay" in2="effect2_innerShadow_5_29" result="effect3_innerShadow_5_29"/>
</filter>
<filter id="filter1_ii_5_29" x="489.322" y="1088.74" width="536.676" height="1041.05" filterUnits="userSpaceOnUse" color-interpolation-filters="sRGB">
<feFlood flood-opacity="0" result="BackgroundImageFix"/>
<feBlend mode="normal" in="SourceGraphic" in2="BackgroundImageFix" result="shape"/>
<feColorMatrix in="SourceAlpha" type="matrix" values="0 0 0 0 0 0 0 0 0 0 0 0 0 0 0 0 0 0 127 0" result="hardAlpha"/>
<feOffset dx="649" dy="4"/>
<feGaussianBlur stdDeviation="2"/>
<feComposite in2="hardAlpha" operator="arithmetic" k2="-1" k3="1"/>
<feColorMatrix type="matrix" values="0 0 0 0 0.0627451 0 0 0 0 0 0 0 0 0 0.219608 0 0 0 0.25 0"/>
<feBlend mode="normal" in2="shape" result="effect1_innerShadow_5_29"/>
<feColorMatrix in="SourceAlpha" type="matrix" values="0 0 0 0 0 0 0 0 0 0 0 0 0 0 0 0 0 0 127 0" result="hardAlpha"/>
<feOffset dx="-25" dy="23"/>
<feGaussianBlur stdDeviation="2"/>
<feComposite in2="hardAlpha" operator="arithmetic" k2="-1" k3="1"/>
<feColorMatrix type="matrix" values="0 0 0 0 0.964706 0 0 0 0 0.596078 0 0 0 0 0.780392 0 0 0 1 0"/>
<feBlend mode="overlay" in2="effect1_innerShadow_5_29" result="effect2_innerShadow_5_29"/>
</filter>
<filter id="filter2_ii_5_29" x="528.917" y="595.4" width="413.354" height="568.128" filterUnits="userSpaceOnUse" color-interpolation-filters="sRGB">
<feFlood flood-opacity="0" result="BackgroundImageFix"/>
<feBlend mode="normal" in="SourceGraphic" in2="BackgroundImageFix" result="shape"/>
<feColorMatrix in="SourceAlpha" type="matrix" values="0 0 0 0 0 0 0 0 0 0 0 0 0 0 0 0 0 0 127 0" result="hardAlpha"/>
<feOffset dx="209" dy="4"/>
<feGaussianBlur stdDeviation="2"/>
<feComposite in2="hardAlpha" operator="arithmetic" k2="-1" k3="1"/>
<feColorMatrix type="matrix" values="0 0 0 0 0.0627451 0 0 0 0 0 0 0 0 0 0.219608 0 0 0 0.25 0"/>
<feBlend mode="normal" in2="shape" result="effect1_innerShadow_5_29"/>
<feColorMatrix in="SourceAlpha" type="matrix" values="0 0 0 0 0 0 0 0 0 0 0 0 0 0 0 0 0 0 127 0" result="hardAlpha"/>
<feOffset dx="-25" dy="14"/>
<feGaussianBlur stdDeviation="2"/>
<feComposite in2="hardAlpha" operator="arithmetic" k2="-1" k3="1"/>
<feColorMatrix type="matrix" values="0 0 0 0 0.964706 0 0 0 0 0.596078 0 0 0 0 0.780392 0 0 0 1 0"/>
<feBlend mode="overlay" in2="effect1_innerShadow_5_29" result="effect2_innerShadow_5_29"/>
</filter>
<filter id="filter3_ii_5_29" x="532.191" y="118.667" width="295.326" height="673.545" filterUnits="userSpaceOnUse" color-interpolation-filters="sRGB">
<feFlood flood-opacity="0" result="BackgroundImageFix"/>
<feBlend mode="normal" in="SourceGraphic" in2="BackgroundImageFix" result="shape"/>
<feColorMatrix in="SourceAlpha" type="matrix" values="0 0 0 0 0 0 0 0 0 0 0 0 0 0 0 0 0 0 127 0" result="hardAlpha"/>
<feOffset dx="90" dy="4"/>
<feGaussianBlur stdDeviation="2"/>
<feComposite in2="hardAlpha" operator="arithmetic" k2="-1" k3="1"/>
<feColorMatrix type="matrix" values="0 0 0 0 0.0627451 0 0 0 0 0 0 0 0 0 0.219608 0 0 0 0.25 0"/>
<feBlend mode="normal" in2="shape" result="effect1_innerShadow_5_29"/>
<feColorMatrix in="SourceAlpha" type="matrix" values="0 0 0 0 0 0 0 0 0 0 0 0 0 0 0 0 0 0 127 0" result="hardAlpha"/>
<feOffset dx="-16" dy="13"/>
<feGaussianBlur stdDeviation="2"/>
<feComposite in2="hardAlpha" operator="arithmetic" k2="-1" k3="1"/>
<feColorMatrix type="matrix" values="0 0 0 0 0.964706 0 0 0 0 0.596078 0 0 0 0 0.780392 0 0 0 1 0"/>
<feBlend mode="overlay" in2="effect1_innerShadow_5_29" result="effect2_innerShadow_5_29"/>
</filter>
<filter id="filter4_i_5_29" x="-2.50433" y="8.5" width="458.181" height="465.54" filterUnits="userSpaceOnUse" color-interpolation-filters="sRGB">
<feFlood flood-opacity="0" result="BackgroundImageFix"/>
<feBlend mode="normal" in="SourceGraphic" in2="BackgroundImageFix" result="shape"/>
<feColorMatrix in="SourceAlpha" type="matrix" values="0 0 0 0 0 0 0 0 0 0 0 0 0 0 0 0 0 0 127 0" result="hardAlpha"/>
<feOffset dx="-45" dy="-11"/>
<feGaussianBlur stdDeviation="1.5"/>
<feComposite in2="hardAlpha" operator="arithmetic" k2="-1" k3="1"/>
<feColorMatrix type="matrix" values="0 0 0 0 0.0627451 0 0 0 0 0 0 0 0 0 0.219608 0 0 0 0.25 0"/>
<feBlend mode="normal" in2="shape" result="effect1_innerShadow_5_29"/>
</filter>
<filter id="filter5_i_5_29" x="268" y="27.9998" width="364.379" height="452.502" filterUnits="userSpaceOnUse" color-interpolation-filters="sRGB">
<feFlood flood-opacity="0" result="BackgroundImageFix"/>
<feBlend mode="normal" in="SourceGraphic" in2="BackgroundImageFix" result="shape"/>
<feColorMatrix in="SourceAlpha" type="matrix" values="0 0 0 0 0 0 0 0 0 0 0 0 0 0 0 0 0 0 127 0" result="hardAlpha"/>
<feOffset dx="21" dy="-53"/>
<feGaussianBlur stdDeviation="2"/>
<feComposite in2="hardAlpha" operator="arithmetic" k2="-1" k3="1"/>
<feColorMatrix type="matrix" values="0 0 0 0 0.0627451 0 0 0 0 0 0 0 0 0 0.219608 0 0 0 0.25 0"/>
<feBlend mode="normal" in2="shape" result="effect1_innerShadow_5_29"/>
</filter>
<filter id="filter6_i_5_29" x="553.932" y="0.751953" width="336.473" height="310.978" filterUnits="userSpaceOnUse" color-interpolation-filters="sRGB">
<feFlood flood-opacity="0" result="BackgroundImageFix"/>
<feBlend mode="normal" in="SourceGraphic" in2="BackgroundImageFix" result="shape"/>
<feColorMatrix in="SourceAlpha" type="matrix" values="0 0 0 0 0 0 0 0 0 0 0 0 0 0 0 0 0 0 127 0" result="hardAlpha"/>
<feOffset dx="-33" dy="24"/>
<feGaussianBlur stdDeviation="2"/>
<feComposite in2="hardAlpha" operator="arithmetic" k2="-1" k3="1"/>
<feColorMatrix type="matrix" values="0 0 0 0 0.965755 0 0 0 0 0.597404 0 0 0 0 0.78158 0 0 0 0.6 0"/>
<feBlend mode="overlay" in2="shape" result="effect1_innerShadow_5_29"/>
</filter>
</defs>
</svg>
